<svg class="railroad" viewBox="0 0 716 424" width="572pt" xmlns="http://www.w3.org/2000/svg">
<style type="text/css">

    svg.railroad {
        background-color: hsl(30, 20%, 95%);
        background-size: 15px 15px;
        background-image: linear-gradient(to right, rgba(30, 30, 30, .05) 1px, transparent 1px),
                          linear-gradient(to bottom, rgba(30, 30, 30, .05) 1px, transparent 1px);
    }

    svg.railroad path {
        stroke-width: 3px;
        stroke: black;
        fill: transparent;
    }

    svg.railroad .debug {
        stroke-width: 1px;
        stroke: red;
    }

    svg.railroad text {
        font: 14px monospace;
        text-anchor: middle;
    }

    svg.railroad .nonterminal text {
        font-weight: bold;
    }

    svg.railroad text.comment {
        font: italic 12px monospace;
    }

    svg.railroad rect {
        stroke-width: 3px;
        stroke: black;
        fill:hsl(-290, 70%, 90%);
    }

    svg.railroad g.labeledbox > rect {
        stroke-width: 1px;
        stroke: grey;
        stroke-dasharray: 5px;
        fill:rgba(90, 90, 150, .1);
    }</style>
<g class="sequence">
<path d=" M 10 29 l 5 5 l -5 5 m 5 -5 h 5"/>
<g class="stack">
<path d=" M 30 34 h 12"/>
<path d=" M 252 34 a 12 12 0 0 1 12 12 v 0 a 12 12 0 0 1 -12 12 h -210 m 108 0 l 5 -5 m 0 10 l -5 -5 m -108 0 a 12 12 0 0 0 -12 12 v 0 v 0 a 12 12 0 0 0 12 12 h 0"/>
<g class="optional">
<path d=" M 42 34 h 24 m -24 0 a 12 12 0 0 0 12 -12 v 0 a 12 12 0 0 1 12 -12 h 162 m -78 0 l -5 -5 m 0 10 l 5 -5 m 78 0 a 12 12 0 0 1 12 12 v 0 a 12 12 0 0 0 12 12 h -24"/>
<g class="sequence">
<g class="terminal">
<rect height="22" rx="10" ry="10" width="100" x="66" y="23"/>
<text x="116" y="39">
CONSTRAINT</text>
</g>
<g class="terminal">
<rect height="22" rx="10" ry="10" width="52" x="176" y="23"/>
<text x="202" y="39">
name</text>
</g>
<path d=" M 166 34 h 10"/>
</g>
</g>
<path d=" M 662 82 h 0 a 12 12 0 0 0 12 -12 v -24 a 12 12 0 0 1 12 -12"/>
<g class="choice">
<path d=" M 42 82 h 24 m 572 0 h 24"/>
<g class="sequence">
<g class="terminal">
<rect height="22" rx="10" ry="10" width="76" x="66" y="71"/>
<text x="104" y="87">
PRIMARY</text>
</g>
<g class="terminal">
<rect height="22" rx="10" ry="10" width="44" x="152" y="71"/>
<text x="174" y="87">
KEY</text>
</g>
<g class="choice">
<path d=" M 206 82 h 24 m 0 0 h 76 m -35 0 l -5 -5 m 0 10 l 5 -5 m 35 0"/>
<g/>
<path d=" M 206 82 a 12 12 0 0 1 12 12 v 0 m 76 0 v 0 a 12 12 0 0 1 12 -12"/>
<path d=" M 218 94 v 33 m 76 0 v -33"/>
<path d=" M 218 94 v 0 a 12 12 0 0 0 12 12 m 44 0 h 8 a 12 12 0 0 0 12 -12 v 0"/>
<g class="terminal">
<rect height="22" rx="10" ry="10" width="44" x="230" y="95"/>
<text x="252" y="111">
ASC</text>
</g>
<path d=" M 218 127 v 0 a 12 12 0 0 0 12 12 m 52 0 h 0 a 12 12 0 0 0 12 -12 v 0"/>
<g class="terminal">
<rect height="22" rx="10" ry="10" width="52" x="230" y="128"/>
<text x="256" y="144">
DESC</text>
</g>
</g>
<g class="nonterminal">
<rect height="22" width="140" x="316" y="71"/>
<text x="386" y="87">
conflict-clause</text>
</g>
<g class="choice">
<path d=" M 466 82 h 24 m 0 0 h 148 m -71 0 l -5 -5 m 0 10 l 5 -5 m 71 0"/>
<g/>
<path d=" M 466 82 a 12 12 0 0 1 12 12 v 0 m 148 0 v 0 a 12 12 0 0 1 12 -12"/>
<path d=" M 478 94 v 0 a 12 12 0 0 0 12 12 m 124 0 h 0 a 12 12 0 0 0 12 -12 v 0"/>
<g class="terminal">
<rect height="22" rx="10" ry="10" width="124" x="490" y="95"/>
<text x="552" y="111">
AUTOINCREMENT</text>
</g>
</g>
<path d=" M 142 82 h 10"/>
<path d=" M 196 82 h 10"/>
<path d=" M 306 82 h 10"/>
<path d=" M 456 82 h 10"/>
</g>
<path d=" M 42 82 a 12 12 0 0 1 12 12 v 66 m 0 -30 l -5 -5 m 10 0 l -5 5 m 0 30 m 596 0 v -66 m 0 36 l -5 5 m 10 0 l -5 -5 m 0 -36 a 12 12 0 0 1 12 -12"/>
<path d=" M 54 160 v 33 m 596 0 v -33"/>
<path d=" M 54 193 v 33 m 596 0 v -33"/>
<path d=" M 54 226 v 33 m 596 0 v -33"/>
<path d=" M 54 259 v 99 m 0 -46 l -5 -5 m 10 0 l -5 5 m 0 46 m 596 0 v -99 m 0 52 l -5 5 m 10 0 l -5 -5 m 0 -52"/>
<path d=" M 54 358 v 33 m 596 0 v -33"/>
<path d=" M 54 160 v 0 a 12 12 0 0 0 12 12 m 256 0 h 316 m -155 0 l -5 -5 m 0 10 l 5 -5 m 155 0 a 12 12 0 0 0 12 -12 v 0"/>
<g class="sequence">
<g class="terminal">
<rect height="22" rx="10" ry="10" width="44" x="66" y="161"/>
<text x="88" y="177">
NOT</text>
</g>
<g class="terminal">
<rect height="22" rx="10" ry="10" width="52" x="120" y="161"/>
<text x="146" y="177">
NULL</text>
</g>
<g class="nonterminal">
<rect height="22" width="140" x="182" y="161"/>
<text x="252" y="177">
conflict-clause</text>
</g>
<path d=" M 110 172 h 10"/>
<path d=" M 172 172 h 10"/>
</g>
<path d=" M 54 193 v 0 a 12 12 0 0 0 12 12 m 218 0 h 354 m -174 0 l -5 -5 m 0 10 l 5 -5 m 174 0 a 12 12 0 0 0 12 -12 v 0"/>
<g class="sequence">
<g class="terminal">
<rect height="22" rx="10" ry="10" width="68" x="66" y="194"/>
<text x="100" y="210">
UNIQUE</text>
</g>
<g class="nonterminal">
<rect height="22" width="140" x="144" y="194"/>
<text x="214" y="210">
conflict-clause</text>
</g>
<path d=" M 134 205 h 10"/>
</g>
<path d=" M 54 226 v 0 a 12 12 0 0 0 12 12 m 198 0 h 374 m -184 0 l -5 -5 m 0 10 l 5 -5 m 184 0 a 12 12 0 0 0 12 -12 v 0"/>
<g class="sequence">
<g class="terminal">
<rect height="22" rx="10" ry="10" width="60" x="66" y="227"/>
<text x="96" y="243">
CHECK</text>
</g>
<g class="terminal">
<rect height="22" rx="10" ry="10" width="28" x="136" y="227"/>
<text x="150" y="243">
(</text>
</g>
<g class="nonterminal">
<rect height="22" width="52" x="174" y="227"/>
<text x="200" y="243">
expr</text>
</g>
<g class="terminal">
<rect height="22" rx="10" ry="10" width="28" x="236" y="227"/>
<text x="250" y="243">
)</text>
</g>
<path d=" M 126 238 h 10"/>
<path d=" M 164 238 h 10"/>
<path d=" M 226 238 h 10"/>
</g>
<path d=" M 54 259 v 0 a 12 12 0 0 0 12 12 m 262 0 h 310 m -152 0 l -5 -5 m 0 10 l 5 -5 m 152 0 a 12 12 0 0 0 12 -12 v 0"/>
<g class="sequence">
<g class="terminal">
<rect height="22" rx="10" ry="10" width="76" x="66" y="260"/>
<text x="104" y="276">
DEFAULT</text>
</g>
<g class="choice">
<path d=" M 152 271 h 24 m 124 0 h 28"/>
<g class="nonterminal">
<rect height="22" width="124" x="176" y="260"/>
<text x="238" y="276">
signed-number</text>
</g>
<path d=" M 152 271 a 12 12 0 0 1 12 12 v 9 m 152 0 v -9 a 12 12 0 0 1 12 -12"/>
<path d=" M 164 292 v 33 m 152 0 v -33"/>
<path d=" M 164 292 v 0 a 12 12 0 0 0 12 12 m 124 0 h 4 a 12 12 0 0 0 12 -12 v 0"/>
<g class="nonterminal">
<rect height="22" width="124" x="176" y="293"/>
<text x="238" y="309">
literal-value</text>
</g>
<path d=" M 164 325 v 0 a 12 12 0 0 0 12 12 m 128 0 h 0 a 12 12 0 0 0 12 -12 v 0"/>
<g class="sequence">
<g class="terminal">
<rect height="22" rx="10" ry="10" width="28" x="176" y="326"/>
<text x="190" y="342">
(</text>
</g>
<g class="nonterminal">
<rect height="22" width="52" x="214" y="326"/>
<text x="240" y="342">
expr</text>
</g>
<g class="terminal">
<rect height="22" rx="10" ry="10" width="28" x="276" y="326"/>
<text x="290" y="342">
)</text>
</g>
<path d=" M 204 337 h 10"/>
<path d=" M 266 337 h 10"/>
</g>
</g>
<path d=" M 142 271 h 10"/>
</g>
<path d=" M 54 358 v 0 a 12 12 0 0 0 12 12 m 218 0 h 354 m -174 0 l -5 -5 m 0 10 l 5 -5 m 174 0 a 12 12 0 0 0 12 -12 v 0"/>
<g class="sequence">
<g class="terminal">
<rect height="22" rx="10" ry="10" width="76" x="66" y="359"/>
<text x="104" y="375">
COLLATE</text>
</g>
<g class="terminal">
<rect height="22" rx="10" ry="10" width="132" x="152" y="359"/>
<text x="218" y="375">
collation-name</text>
</g>
<path d=" M 142 370 h 10"/>
</g>
<path d=" M 54 391 v 0 a 12 12 0 0 0 12 12 m 164 0 h 408 m -201 0 l -5 -5 m 0 10 l 5 -5 m 201 0 a 12 12 0 0 0 12 -12 v 0"/>
<g class="nonterminal">
<rect height="22" width="164" x="66" y="392"/>
<text x="148" y="408">
foreign-key-clause</text>
</g>
</g>
</g>
<path d=" M 696 34 h 5 m -5 5 l 5 -5 l -5 -5 m 5 5"/>
<path d=" M 20 34 h 10"/>
<path d=" M 686 34 h 10"/>
</g>
</svg>
